<?xml version="1.0" encoding="utf-8"?>
<!-- Generator: Adobe Illustrator 23.0.1, SVG Export Plug-In . SVG Version: 6.00 Build 0)  -->
<svg version="1.1" id="Слой_1" xmlns="http://www.w3.org/2000/svg" xmlns:xlink="http://www.w3.org/1999/xlink" x="0px" y="0px"
	 viewBox="0 0 740 740" style="enable-background:new 0 0 740 740;" xml:space="preserve">
<style type="text/css">
</style>
<g>
	
		<linearGradient id="SVGID_1_" gradientUnits="userSpaceOnUse" x1="0" y1="372" x2="739.9999" y2="372" gradientTransform="matrix(1 0 0 -1 0 742)">
		<stop  offset="0" style="stop-color:#FFC107"/>
		<stop  offset="0.507" style="stop-color:#F44336"/>
		<stop  offset="0.99" style="stop-color:#9C27B0"/>
	</linearGradient>
	<path class="st0" d="M370,740c-49.9,0-98.4-9.8-144-29.1c-44.1-18.6-83.6-45.3-117.6-79.3S47.7,558.1,29.1,514
		C9.8,468.4,0,419.9,0,370s9.8-98.4,29.1-144c18.6-44.1,45.3-83.6,79.3-117.6S181.9,47.7,226,29.1C271.6,9.8,320.1,0,370,0
		s98.4,9.8,144,29.1c44.1,18.6,83.6,45.3,117.6,79.3s60.7,73.5,79.3,117.6c19.3,45.6,29.1,94.1,29.1,144s-9.8,98.4-29.1,144
		c-18.6,44.1-45.3,83.6-79.3,117.6s-73.5,60.7-117.6,79.3C468.4,730.2,419.9,740,370,740z M370,30C182.5,30,30,182.5,30,370
		s152.5,340,340,340s340-152.5,340-340S557.5,30,370,30z"/>
</g>
<linearGradient id="SVGID_2_" gradientUnits="userSpaceOnUse" x1="-326.824" y1="483.9755" x2="-317.511" y2="493.2886" gradientTransform="matrix(32 0 0 -32 10679.3633 16018.7227)">
	<stop  offset="0" style="stop-color:#FFC107"/>
	<stop  offset="0.507" style="stop-color:#F44336"/>
	<stop  offset="0.99" style="stop-color:#9C27B0"/>
</linearGradient>
<path class="st1" d="M438.4,200.1H301.6c-62.9,0-114,51-114,114v136.8c0,62.9,51,114,114,114h136.8c62.9,0,114-51,114-114V314
	C552.4,251.1,501.3,200.1,438.4,200.1z M518.2,450.8c0,44-35.8,79.8-79.8,79.8H301.6c-44,0-79.8-35.8-79.8-79.8V314
	c0-44,35.8-79.8,79.8-79.8h136.8c44,0,79.8,35.8,79.8,79.8V450.8z"/>
<linearGradient id="SVGID_3_" gradientUnits="userSpaceOnUse" x1="-324.1832" y1="486.6163" x2="-320.1519" y2="490.6476" gradientTransform="matrix(32 0 0 -32 10679.3633 16018.7227)">
	<stop  offset="0" style="stop-color:#FFC107"/>
	<stop  offset="0.507" style="stop-color:#F44336"/>
	<stop  offset="0.99" style="stop-color:#9C27B0"/>
</linearGradient>
<path class="st2" d="M370,291.3c-50.4,0-91.2,40.8-91.2,91.2s40.8,91.2,91.2,91.2s91.2-40.8,91.2-91.2S420.4,291.3,370,291.3z
	 M370,439.4c-31.4,0-57-25.6-57-57s25.6-57,57-57s57,25.6,57,57C427,413.9,401.4,439.4,370,439.4z"/>
<linearGradient id="SVGID_4_" gradientUnits="userSpaceOnUse" x1="-319.3732" y1="491.4294" x2="-318.8362" y2="491.9664" gradientTransform="matrix(32 0 0 -32 10679.3633 16018.7227)">
	<stop  offset="0" style="stop-color:#FFC107"/>
	<stop  offset="0.507" style="stop-color:#F44336"/>
	<stop  offset="0.99" style="stop-color:#9C27B0"/>
</linearGradient>
<circle class="st3" cx="468" cy="284.4" r="12.2"/>
</svg>
