<?xml version="1.0" encoding="utf-8"?>
<!-- Generator: Adobe Illustrator 23.0.1, SVG Export Plug-In . SVG Version: 6.00 Build 0)  -->
<svg version="1.1" id="Слой_1" xmlns="http://www.w3.org/2000/svg" xmlns:xlink="http://www.w3.org/1999/xlink" x="0px" y="0px"
	 viewBox="0 0 740 740" style="enable-background:new 0 0 740 740;" xml:space="preserve">
<g>
	<path class="st0" d="M370,740c-49.9,0-98.4-9.8-144-29.1c-44.1-18.6-83.6-45.3-117.6-79.3c-34-34-60.7-73.5-79.3-117.6
		C9.8,468.4,0,419.9,0,370c0-49.9,9.8-98.4,29.1-144c18.6-44.1,45.3-83.6,79.3-117.6c34-34,73.5-60.7,117.6-79.3
		C271.6,9.8,320.1,0,370,0s98.4,9.8,144,29.1c44.1,18.6,83.6,45.3,117.6,79.3c34,34,60.7,73.5,79.3,117.6
		c19.3,45.6,29.1,94.1,29.1,144c0,49.9-9.8,98.4-29.1,144c-18.6,44.1-45.3,83.6-79.3,117.6c-34,34-73.5,60.7-117.6,79.3
		C468.4,730.2,419.9,740,370,740z M370,30C182.5,30,30,182.5,30,370s152.5,340,340,340s340-152.5,340-340S557.5,30,370,30z"/>
</g>
<g>
	<path class="st0" d="M359.9,161.2c-110.4,5.3-197.6,97.2-197.2,207.8c0.1,33.7,8.2,65.5,22.6,93.5l-22,106.9
		c-1.2,5.8,4,10.8,9.8,9.5L277.7,554c26.9,13.4,57.1,21.1,89.1,21.6c112.9,1.7,207-87.9,210.5-200.7
		C581,254,481.2,155.4,359.9,161.2z M484.8,483.1c-30.7,30.7-71.4,47.6-114.8,47.6c-25.4,0-49.7-5.7-72.3-16.9l-14.6-7.3l-64.2,15.2
		l13.5-65.6l-7.2-14.1c-11.7-22.9-17.6-47.7-17.6-73.7c0-43.4,16.9-84.1,47.6-114.8c30.4-30.4,71.8-47.6,114.8-47.6
		c43.4,0,84.1,16.9,114.8,47.6c30.7,30.7,47.6,71.4,47.6,114.8C532.4,411.3,515.2,452.7,484.8,483.1z"/>
	<path class="st0" d="M470.6,413.3l-40.2-11.5c-5.3-1.5-11,0-14.8,3.9l-9.8,10c-4.1,4.2-10.4,5.6-15.9,3.4c-19-7.7-59-43.2-69.2-61
		c-2.9-5.1-2.5-11.5,1.2-16.2l8.6-11.1c3.4-4.3,4.1-10.2,1.8-15.2l-16.9-38.2c-4-9.2-15.7-11.8-23.4-5.4
		c-11.2,9.5-24.5,23.9-26.1,39.9c-2.9,28.1,9.2,63.6,54.9,106.2c52.7,49.2,95,55.7,122.4,49.1c15.6-3.8,28.1-18.9,35.9-31.3
		C484.5,427.3,480.3,416,470.6,413.3z"/>
</g>
</svg>
