<?xml version="1.0" encoding="UTF-8" standalone="no"?>
<svg
   xmlns:dc="http://purl.org/dc/elements/1.1/"
   xmlns:cc="http://creativecommons.org/ns#"
   xmlns:rdf="http://www.w3.org/1999/02/22-rdf-syntax-ns#"
   xmlns:svg="http://www.w3.org/2000/svg"
   xmlns="http://www.w3.org/2000/svg"
   xmlns:sodipodi="http://sodipodi.sourceforge.net/DTD/sodipodi-0.dtd"
   xmlns:inkscape="http://www.inkscape.org/namespaces/inkscape"
   version="1.1"
   id="Слой_1"
   x="0px"
   y="0px"
   viewBox="0 0 740 740"
   xml:space="preserve"
   sodipodi:docname="soc-icon-3.svg"
   width="740"
   height="740"
   inkscape:version="1.0.1 (1.0.1+r75)">


<g
   id="g205"><g
     id="g233"
     style="opacity:1" /><path
     id="path241"
     style="color:#000000;font-style:normal;font-variant:normal;font-weight:normal;font-stretch:normal;font-size:medium;line-height:normal;font-family:sans-serif;font-variant-ligatures:normal;font-variant-position:normal;font-variant-caps:normal;font-variant-numeric:normal;font-variant-alternates:normal;font-variant-east-asian:normal;font-feature-settings:normal;font-variation-settings:normal;text-indent:0;text-align:start;text-decoration:none;text-decoration-line:none;text-decoration-style:solid;text-decoration-color:#000000;letter-spacing:normal;word-spacing:normal;text-transform:none;writing-mode:lr-tb;direction:ltr;text-orientation:mixed;dominant-baseline:auto;baseline-shift:baseline;text-anchor:start;white-space:normal;shape-padding:0;shape-margin:0;inline-size:0;clip-rule:nonzero;display:inline;overflow:visible;visibility:visible;opacity:1;isolation:auto;mix-blend-mode:normal;color-interpolation:sRGB;color-interpolation-filters:linearRGB;solid-color:#000000;solid-opacity:1;vector-effect:none;fill-opacity:1;fill-rule:nonzero;stroke:none;stroke-width:30;stroke-linecap:butt;stroke-linejoin:miter;stroke-miterlimit:10;stroke-dasharray:none;stroke-dashoffset:0;stroke-opacity:1;color-rendering:auto;image-rendering:auto;shape-rendering:auto;text-rendering:auto;enable-background:accumulate;stop-color:#000000;stop-opacity:1"
     d="M 370,0 C 165.83231,0 0,165.83231 0,370 0,574.16769 165.83231,740 370,740 574.16769,740 740,574.16769 740,370 740,165.83231 574.16769,0 370,0 Z m 0,30 C 557.95448,30 710,182.04552 710,370 710,557.95448 557.95448,710 370,710 182.04552,710 30,557.95448 30,370 30,182.04552 182.04552,30 370,30 Z M 152,246.69922 c -7.4271,0 -12.00881,1.72455 -14.7207,4.50195 -2.7119,2.7774 -3.47852,6.53265 -3.47852,10.39844 0,3.45883 1.10469,10.13511 3.75195,19.66211 2.64726,9.527 6.84199,21.87802 13.03711,36.55859 12.39025,29.36114 32.7841,68.04323 64.80664,112.07422 42.67866,60.20762 102.80687,92.80469 157.60352,92.80469 16.43659,0 25.71237,-1.77467 30.97461,-5.24414 2.63112,-1.73474 4.23883,-3.91145 5.1582,-6.43164 0.91938,-2.52019 1.16797,-5.37177 1.16797,-8.52344 0,-28.70871 -0.73745,-44.44417 0.55664,-52.84961 0.64705,-4.20272 1.76912,-6.50025 3.65625,-7.79883 1.88714,-1.29858 4.68938,-1.65234 8.78711,-1.65234 3.71667,0 8.78244,0.91723 16.79102,5.44922 8.00857,4.53198 18.9335,12.68206 34.26562,27.11523 17.47816,17.17932 27.65789,29.5839 35.9668,37.74219 8.31027,8.15963 14.84529,12.09375 24.77539,12.09375 h 51.5 c 7.43163,0 13.11345,-1.81468 16.41211,-5.55664 3.29866,-3.74196 4.09752,-9.33604 1.96875,-16.58399 l -0.002,-0.008 -0.004,-0.008 c -4.97224,-15.17039 -24.01969,-38.01782 -42.19531,-57.70703 -9.08781,-9.84461 -17.95613,-18.88111 -24.73438,-25.71094 -3.38912,-3.41491 -6.25597,-6.27846 -8.36328,-8.41406 -1.05366,-1.0678 -1.91789,-1.95329 -2.56055,-2.63281 -0.64265,-0.67953 -1.07595,-1.17359 -1.21289,-1.36719 l -0.008,-0.0117 -0.008,-0.01 c -3.76288,-4.7531 -5.03131,-8.08452 -4.76953,-11.27343 0.26146,-3.18513 2.10189,-6.35038 4.79297,-10.63672 0.01,-0.0129 0.0209,-0.0306 0.0371,-0.0527 0.0325,-0.0443 0.0793,-0.10889 0.14063,-0.19336 0.12264,-0.16893 0.30295,-0.41722 0.53711,-0.74218 0.46831,-0.64993 1.15383,-1.60384 2.02539,-2.82618 1.74312,-2.44467 4.23483,-5.96285 7.24219,-10.27539 6.01472,-8.62506 14.09209,-20.42393 22.37109,-33.14257 8.279,-12.71865 16.7583,-26.3563 23.58008,-38.66993 6.81222,-12.29637 11.97102,-23.24503 13.62891,-30.73437 0.001,-0.004 7.6e-4,-0.008 0.002,-0.0117 1.61927,-5.42134 1.65369,-10.24238 -0.82227,-13.73242 -2.47777,-3.4926 -7.37341,-5.49805 -15.25781,-5.49805 h -51.5 c -13.27303,0 -19.61453,6.99394 -22.86133,14.70508 v 0.002 c 0,0 -26.20107,62.75222 -63.30468,103.34961 -0.002,0.002 -0.002,0.004 -0.004,0.006 -5.97957,5.87881 -10.33835,9.73061 -13.97852,12.0918 -3.64482,2.36421 -6.54538,3.24414 -9.75195,3.24414 -2.80417,0 -7.69922,-3.45576 -7.69922,-14 v -100.3981 c 0,-6.4978 -0.91799,-11.25608 -3.30078,-14.4375 -2.38279,-3.18142 -6.21126,-4.66406 -11.69922,-4.66406 h -81 c -8.4439,0 -13.60156,6.20989 -13.60156,12.10156 0,3.17705 1.22466,5.75929 3.02734,8.31641 1.80269,2.55711 4.18564,5.11903 6.61133,8.35742 4.84972,6.47456 9.91375,15.63852 10.86133,32.73828 v 74.58789 c 0,8.11933 -0.77251,12.88522 -2.24805,15.51758 -0.73777,1.31618 -1.62706,2.10771 -2.72851,2.60156 -1.10146,0.49386 -2.4369,0.67969 -4.02344,0.67969 -4.07453,0 -9.98967,-3.82863 -16.79297,-10.83399 -6.8033,-7.00535 -14.52925,-17.12364 -22.49805,-29.49804 -15.93758,-24.74881 -32.84944,-58.52296 -45.43554,-94.5332 l -0.002,-0.002 v -0.004 c -2.56051,-7.02888 -5.10923,-12.0331 -8.75,-15.30079 -3.64076,-3.26768 -8.34951,-4.72851 -15.02148,-4.72851 z m 0,1 h 51.69922 c 6.52803,0 10.91928,1.39034 14.35351,4.47266 3.43424,3.08231 5.93708,7.9273 8.47657,14.89843 12.61368,36.08756 29.55056,69.91344 45.53711,94.73828 7.9937,12.4131 15.74821,22.57528 22.62304,29.6543 6.87483,7.07902 12.83429,11.13672 17.50977,11.13672 1.66346,0 3.14247,-0.18956 4.43164,-0.76758 1.28917,-0.57802 2.36863,-1.55407 3.19336,-3.02539 1.64946,-2.94264 2.375,-7.82518 2.375,-16.00586 v -74.61523 -0.0137 c -0.95491,-17.28896 -6.13888,-26.72366 -11.0625,-33.29688 -2.46181,-3.28661 -4.84761,-5.8618 -6.5918,-8.33594 -1.74419,-2.47413 -2.8457,-4.81533 -2.8457,-7.73828 0,-5.30833 4.64546,-11.10156 12.60156,-11.10156 h 81 c 5.31204,0 8.73123,1.37009 10.89844,4.26367 2.16721,2.89358 3.10156,7.43569 3.10156,13.83789 v 100.39844 c 0,10.85576 5.10339,15 8.69922,15 3.39343,0 6.5417,-0.96851 10.29688,-3.4043 3.75517,-2.43579 8.14569,-6.32982 14.15429,-12.23828 l 0.01,-0.01 0.008,-0.01 c 37.29247,-40.80118 63.49015,-103.63769 63.49219,-103.64258 v -0.002 c 3.15336,-7.48822 9.01338,-14.0918 21.93945,-14.0918 h 51.5 c 7.7156,0 12.21918,1.94378 14.44141,5.07617 2.22223,3.1324 2.2569,7.60511 0.67968,12.87891 l -0.006,0.0176 -0.004,0.0195 c -1.59964,7.25989 -6.73389,18.21987 -13.53711,30.5 -6.80322,12.28012 -15.27197,25.90302 -23.54297,38.60937 -8.271,12.70636 -16.34324,24.49655 -22.35352,33.11524 -3.00513,4.30934 -5.49507,7.82553 -7.23632,10.26758 -0.87063,1.22102 -1.55426,2.17384 -2.02149,2.82226 -0.23361,0.32421 -0.41351,0.57266 -0.53515,0.74024 -0.0608,0.0838 -0.1076,0.147 -0.13868,0.18945 -0.0129,0.0177 -0.022,0.0292 -0.0293,0.0391 -10e-4,0.002 -0.005,0.006 -0.006,0.008 l -0.004,0.002 -0.0312,0.0488 c -2.70369,4.30588 -4.66099,7.58852 -4.94922,11.09961 -0.28776,3.50553 1.14137,7.11971 4.96485,11.95507 3.1e-4,4.5e-4 0.002,0.002 0.002,0.002 0.22581,0.31887 0.64977,0.78625 1.30078,1.47461 0.65193,0.68932 1.51831,1.57834 2.57422,2.64843 2.11183,2.14018 4.9778,5.00281 8.36523,8.41602 6.77488,6.82642 15.63625,15.8532 24.71094,25.68359 18.14345,19.65436 37.13916,42.59601 41.97461,57.32617 3.4e-4,10e-4 -3.4e-4,0.003 0,0.004 2.06975,7.04999 1.26795,12.20629 -1.75781,15.63867 -3.02634,3.43304 -8.39374,5.2168 -15.66211,5.2168 h -51.5 c -9.6699,0 -15.83449,-3.71627 -24.07422,-11.80664 -8.23973,-8.09037 -18.45803,-20.5337 -35.97461,-37.75 l -0.004,-0.004 -0.004,-0.004 c -15.36788,-14.46684 -26.34256,-22.6648 -34.45899,-27.25782 -8.11642,-4.59301 -13.39987,-5.57812 -17.2832,-5.57812 -4.15227,0 -7.16448,0.32241 -9.35547,1.83008 -2.19099,1.50767 -3.41072,4.14647 -4.07617,8.46875 -1.33091,8.64456 -0.56836,24.31066 -0.56836,53.00195 0,3.09833 -0.2518,5.83425 -1.10742,8.17969 -0.85562,2.34543 -2.30065,4.31168 -4.76953,5.93945 -4.93776,3.25553 -14.06042,5.08008 -30.42383,5.08008 -54.40159,0 -114.27188,-32.4 -156.79297,-92.38867 v -0.002 l -0.002,-0.002 c -31.97746,-43.96901 -52.33556,-82.58809 -64.69531,-111.87695 -6.17988,-14.64443 -10.36015,-26.9563 -12.99415,-36.43555 -2.63399,-9.47925 -3.71484,-16.15336 -3.71484,-19.39453 0,-3.73421 0.73221,-7.17857 3.19531,-9.70117 2.46311,-2.52261 6.73101,-4.19922 14.00391,-4.19922 z M 525.5,404.9 c -7.6,-9.6 -5.4,-13.9 0,-22.5 0.1,-0.1 63,-87 69.5,-116.5 v 0 c 3.2,-10.7 0,-18.6 -15.6,-18.6 h -51.5 c -13.1,0 -19.2,6.8 -22.4,14.4 0,0 -26.2,62.8 -63.4,103.5 -12,11.8 -17.5,15.5 -24.1,15.5 -3.2,0 -8.2,-3.8 -8.2,-14.5 V 265.8 c 0,-12.9 -3.7,-18.6 -14.5,-18.6 h -81 c -8.2,0 -13.1,6 -13.1,11.6 0,12.2 18.6,15 20.5,49.4 v 74.6 c 0,16.3 -3,19.3 -9.5,19.3 -17.5,0 -60,-63.1 -85.2,-135.2 -5.1,-14 -10.1,-19.7 -23.3,-19.7 H 152 c -14.7,0 -17.7,6.8 -17.7,14.4 0,13.4 17.5,80 81.5,168 42.6,60.1 102.6,92.6 157.2,92.6 32.8,0 36.8,-7.2 36.8,-19.7 0,-57.4 -3,-62.8 13.5,-62.8 7.6,0 20.7,3.8 51.4,32.7 35,34.4 40.8,49.7 60.4,49.7 h 51.5 c 14.7,0 22.1,-7.2 17.9,-21.5 -9.8,-29.9 -76.1,-91.6 -79,-95.7 z" /></g>
</svg>
